<svg version="1.0" xmlns="http://www.w3.org/2000/svg" width="512.000000pt" height="512.000000pt" viewBox="0 0 512.000000 512.000000" preserveAspectRatio="xMidYMid meet">

<g transform="translate(0.000000,512.000000) scale(0.100000,-0.100000)" fill="#ff1493" stroke="none">
<path d="M3514 4940 c-199 -52 -352 -187 -459 -405 -69 -141 -88 -223 -89 -395 -1 -161 12 -226 68 -360 67 -158 126 -229 369 -444 95 -84 177 -163 184 -176 9 -17 13 -79 13 -192 l0 -168 -163 0 -162 0 -13 66 c-24 126 -112 279 -212 366 -148 129 -388 208 -634 208 -323 0 -628 -118 -860 -331 -42 -39 -269 -313 -573 -693 -544 -680 -530 -659 -477 -713 25 -25 28 -26 119 -19 104 7 213 32 301 69 41 18 64 22 76 16 24 -13 99 -11 208 6 188 28 316 81 519 215 l137 90 187 0 c103 0 187 -2 187 -4 0 -3 -108 -159 -240 -347 -257 -368 -262 -378 -215 -424 l24 -25 336 0 335 0 0 -535 0 -536 25 -24 c24 -25 26 -25 215 -25 189 0 191 0 215 25 33 32 33 78 0 110 -23 24 -29 25 -160 25 l-135 0 0 480 0 480 142 0 142 0 82 -80 c67 -66 87 -80 113 -80 43 0 81 38 81 82 0 27 -15 47 -103 135 l-103 103 -177 0 -177 0 0 320 0 320 23 4 c12 2 54 9 92 16 39 6 158 40 266 76 l195 64 250 0 c271 0 319 6 424 57 71 34 179 142 213 213 50 105 57 154 57 420 0 279 -10 345 -65 455 -51 103 -100 157 -305 335 -102 89 -198 178 -213 198 -62 82 -72 204 -24 299 36 70 48 78 80 53 48 -38 156 -81 239 -97 46 -8 93 -17 106 -19 35 -7 153 -131 188 -199 17 -33 39 -85 49 -115 23 -72 58 -118 109 -141 91 -41 184 -7 234 86 23 45 28 230 8 325 -29 137 -134 317 -228 393 -22 18 -81 83 -130 145 -49 61 -115 134 -145 162 -144 128 -361 179 -549 130z m227 -150 c73 -14 168 -60 219 -106 24 -22 72 -75 107 -118 l64 -80 -83 -83 -83 -83 -60 11 c-76 14 -166 57 -229 109 -67 56 -93 54 -161 -11 -163 -154 -202 -371 -99 -559 36 -66 60 -90 284 -287 193 -168 234 -217 272 -318 22 -57 23 -74 23 -330 l0 -270 -28 -60 c-47 -101 -121 -163 -224 -190 -43 -11 -118 -15 -308 -15 l-251 0 -149 -50 c-288 -97 -313 -102 -560 -107 -214 -5 -220 -5 -204 13 9 11 83 98 165 194 211 247 204 238 204 271 0 41 -39 79 -81 79 -39 0 -39 0 -314 -323 l-200 -236 -94 0 c-89 -1 -93 0 -79 17 8 9 82 96 164 192 211 247 204 238 204 271 0 41 -39 79 -81 79 -39 0 -39 0 -314 -323 l-200 -236 -94 0 c-89 -1 -93 0 -79 17 8 9 82 96 164 192 211 247 204 238 204 271 0 41 -39 79 -81 79 -39 0 -39 0 -314 -323 l-200 -236 -98 0 -98 -1 18 23 c10 12 133 166 274 342 263 329 326 397 440 478 373 264 959 257 1204 -15 75 -84 134 -235 135 -346 0 -21 9 -41 25 -57 l24 -25 239 0 c232 0 240 1 273 23 18 12 44 38 57 57 23 34 23 38 20 256 l-3 221 -30 49 c-20 31 -97 107 -212 209 -99 88 -194 176 -210 195 -194 225 -233 542 -103 815 83 173 213 287 364 320 76 17 109 18 177 5z m612 -568 c46 -86 67 -174 67 -277 0 -92 -12 -121 -35 -91 -8 11 -15 26 -15 34 0 21 -65 156 -101 209 -18 26 -57 72 -87 101 l-55 54 59 59 59 60 36 -40 c20 -22 53 -71 72 -109z m-3253 -2174 c-66 -57 -179 -126 -255 -153 -41 -15 -78 -25 -81 -22 -3 3 31 51 75 106 l82 101 107 0 107 -1 -35 -31z m415 -3 c-90 -52 -309 -127 -280 -97 6 6 42 38 80 71 l70 60 95 0 95 0 -60 -34z m965 -285 l0 -320 -241 0 c-132 0 -239 4 -237 8 2 5 101 149 221 320 158 225 224 312 238 312 18 0 19 -11 19 -320z" fill="#ff1493"/>
<path d="M3839 4631 c-20 -20 -29 -39 -29 -61 0 -43 47 -90 90 -90 22 0 41 9 61 29 20 20 29 39 29 61 0 22 -9 41 -29 61 -20 20 -39 29 -61 29 -22 0 -41 -9 -61 -29z" fill="#ff1493"/>
</g>
</svg>